<?xml version="1.0" encoding="UTF-8" standalone="no"?>
<svg
   height="16"
   viewBox="0 0 16 16"
   width="16"
   version="1.1"
   id="svg19"
   sodipodi:docname="PlayPlus.svg"
   inkscape:version="1.1 (c68e22c387, 2021-05-23)"
   xmlns:inkscape="http://www.inkscape.org/namespaces/inkscape"
   xmlns:sodipodi="http://sodipodi.sourceforge.net/DTD/sodipodi-0.dtd"
   xmlns="http://www.w3.org/2000/svg"
   xmlns:svg="http://www.w3.org/2000/svg">
  <defs
     id="defs23">
    <inkscape:path-effect
       effect="powerclip"
       id="path-effect853"
       is_visible="true"
       lpeversion="1"
       inverse="true"
       flatten="false"
       hide_clip="false"
       message="Use fill-rule evenodd on &lt;b&gt;fill and stroke&lt;/b&gt; dialog if no flatten result after convert clip to paths." />
    <inkscape:path-effect
       effect="powerclip"
       id="path-effect497"
       is_visible="true"
       lpeversion="1"
       inverse="true"
       flatten="false"
       hide_clip="false"
       message="Use fill-rule evenodd on &lt;b&gt;fill and stroke&lt;/b&gt; dialog if no flatten result after convert clip to paths." />
  </defs>
  <sodipodi:namedview
     id="namedview21"
     pagecolor="#ffffff"
     bordercolor="#666666"
     borderopacity="1.0"
     inkscape:pageshadow="2"
     inkscape:pageopacity="0.0"
     inkscape:pagecheckerboard="0"
     showgrid="false"
     inkscape:zoom="45.254834"
     inkscape:cx="6.8169513"
     inkscape:cy="8.6952037"
     inkscape:window-width="1920"
     inkscape:window-height="1017"
     inkscape:window-x="-8"
     inkscape:window-y="-8"
     inkscape:window-maximized="1"
     inkscape:current-layer="svg19" />
  <path
     d="m 4.9883,1039.4 c -0.5469,0.01 -0.98717,0.4511 -0.98828,0.998 v 4.392 3.608 c 1.163e-4,0.7986 0.89011,1.275 1.5547,0.8321 l 6,-4 c 0.59362,-0.3959 0.59362,-1.2682 0,-1.6641 l -6,-4 c -0.1678,-0.1111 -0.3652,-0.1689 -0.56641,-0.166 z"
     fill="#e0e0e0"
     fill-rule="evenodd"
     id="path17"
     clip-path="none"
     style="fill:#e0e0e0;fill-opacity:1;stroke:#e0e0e0;stroke-opacity:1"
     sodipodi:nodetypes="scccccccss"
     transform="translate(0,-1036.4)" />
  <path
     d="M 4.9883,3 C 4.4414,3.01 4.00113,3.4511 4.00002,3.998 v 4.392 3.608 c 1.16e-4,0.7986 0.89011,1.275 1.5547,0.8321 l 6,-4 c 0.59362,-0.3959 0.59362,-1.2682 0,-1.6641 l -6,-4 C 5.38692,3.0549 5.18952,2.9971 4.98831,3 Z"
     fill="#e0e0e0"
     fill-rule="evenodd"
     id="path17-2"
     clip-path="none"
     style="fill:#e0e0e0;fill-opacity:1;stroke:#e0e0e0;stroke-opacity:1"
     sodipodi:nodetypes="scccccccss" />
  <path
     d="M 4.9883,3 C 4.4414,3.01 4.00113,3.4511 4.00002,3.998 V 8.3899996 11.998 c 1.16e-4,0.7986 0.89011,1.275 1.5547,0.8321 l 6,-4.0000004 c 0.59362,-0.3959 0.59362,-1.2682 0,-1.6641 L 5.55472,3.166 C 5.38692,3.0549 5.18952,2.9971 4.98831,3 Z"
     fill="#e0e0e0"
     fill-rule="evenodd"
     id="path17-2-5"
     clip-path="none"
     style="fill:#e0e0e0;fill-opacity:1;stroke:#e0e0e0;stroke-opacity:1"
     sodipodi:nodetypes="scccccccss" />
  <text
     xml:space="preserve"
     style="font-style:normal;font-weight:normal;font-size:40px;line-height:1.25;font-family:sans-serif;fill:#000000;fill-opacity:1;stroke:none"
     x="6.2931628"
     y="7.7475829"
     id="text2241"><tspan
       sodipodi:role="line"
       id="tspan2239" /></text>
  <g
     id="g22785"
     transform="matrix(1.953441,0,0,1.9862387,-0.65592683,-13.23424)">
    <path
       style="fill:#cccccc;fill-opacity:1;stroke:#e0e0e0;stroke-width:1.05638px;stroke-linecap:butt;stroke-linejoin:miter;stroke-opacity:1"
       d="M 7.043457,6.6894531 V 9.5092774 Z"
       id="path7764" />
    <path
       style="fill:#cccccc;fill-opacity:1;stroke:#e0e0e0;stroke-width:1px;stroke-linecap:butt;stroke-linejoin:miter;stroke-opacity:1"
       d="M 5.6518555,8.0932618 H 8.4838868 Z"
       id="path7766" />
  </g>
</svg>
